# xmcd
#
# Track frame offsets:
#  150
#  16115
#  29198
#  42872
#  57467
#  71559
#  83978
#  96945
#  108923
#  127589
#  145083
#  158963
#  172484
#
# Disc length: 2702 seconds
#
# Revision: 0
# Processed by: cddbd v1.5.1PL2 Copyright (c) Steve Scherf et al.
# Submitted via: Collectorz.com_Music_Collector 6.11
#
DISCID=b20a8c0d
DTITLE=Watson, Dale - Live@Newland.nl/Remixed [CD1)
DYEAR=2006
DGENRE=Traditional Country
TTITLE0=Honky Tonkers
TTITLE1=Making Up Time
TTITLE2=You Pour Salt In The Wound
TTITLE3=Heaahh!!
TTITLE4=I'm Wondering
TTITLE5=Luther
TTITLE6=Whiskey Or God
TTITLE7=38-21-34
TTITLE8=Made In Japan
TTITLE9=Wine Wine Wine
TTITLE10=Yellow Mama
TTITLE11=I Think Of You
TTITLE12=Exit 109
EXTD=
EXTT0=
EXTT1=
EXTT2=
EXTT3=
EXTT4=
EXTT5=
EXTT6=
EXTT7=
EXTT8=
EXTT9=
EXTT10=
EXTT11=
EXTT12=
PLAYORDER=
